<?xml version="1.0" standalone="no"?>
<!DOCTYPE svg PUBLIC "-//W3C//DTD SVG 20010904//EN"
 "http://www.w3.org/TR/2001/REC-SVG-20010904/DTD/svg10.dtd">
<svg version="1.0" xmlns="http://www.w3.org/2000/svg"
 width="1000.000000pt" height="1000.000000pt" viewBox="0 0 1000.000000 1000.000000"
 preserveAspectRatio="xMidYMid meet">
<metadata>
Created by potrace 1.11, written by Peter Selinger 2001-2013
</metadata>
<g transform="translate(0.000000,1000.000000) scale(0.100000,-0.100000)"
fill="#000000" stroke="none">
<path d="M6810 9820 c0 -14 -136 -145 -185 -178 -22 -15 -42 -29 -45 -32 -3
-3 -23 -18 -45 -35 -43 -32 -59 -44 -78 -61 -7 -6 -34 -23 -62 -39 -27 -16
-87 -53 -132 -82 -46 -29 -85 -53 -88 -53 -3 0 -18 -8 -33 -19 -66 -45 -192
-121 -201 -121 -6 0 -11 -3 -11 -8 0 -4 -17 -16 -37 -27 -20 -11 -49 -30 -63
-42 -29 -26 -26 -24 -104 -82 -32 -24 -66 -51 -75 -60 -9 -9 -38 -34 -64 -56
-62 -51 -201 -189 -274 -272 -32 -36 -66 -73 -75 -82 -10 -8 -18 -20 -18 -25
0 -5 -8 -16 -18 -25 -9 -9 -35 -38 -56 -66 -22 -27 -47 -57 -55 -66 -25 -26
-52 -60 -104 -129 -68 -92 -118 -150 -129 -150 -5 0 -6 5 -3 10 3 6 -1 13 -9
16 -9 3 -16 10 -16 15 0 11 -40 71 -55 81 -7 5 -7 8 0 8 6 0 2 5 -7 11 -10 5
-18 17 -18 24 0 8 -4 15 -9 15 -5 0 -11 8 -15 18 -7 21 -27 53 -43 67 -6 5
-35 42 -63 80 -93 124 -123 158 -246 280 -145 143 -205 199 -259 237 -22 16
-60 49 -85 72 -25 23 -52 47 -62 52 -59 33 -461 418 -478 457 -11 27 -78 123
-94 136 -24 20 -48 3 -58 -40 -12 -49 -15 -59 -32 -107 -8 -23 -15 -44 -16
-47 0 -3 -1 -7 -1 -10 -4 -15 -6 -24 -12 -66 -8 -47 -13 -74 -22 -119 -25
-125 -24 -530 1 -685 4 -22 8 -53 10 -70 8 -100 17 -171 35 -274 11 -64 22
-127 24 -141 8 -48 15 -125 20 -215 3 -49 8 -110 10 -135 10 -88 19 -322 16
-416 l-1 -32 -52 15 c-29 9 -58 22 -66 29 -7 8 -18 14 -24 14 -5 0 -23 9 -39
21 -16 11 -29 18 -29 15 0 -3 -27 10 -59 28 -32 19 -76 39 -98 46 -21 6 -52
18 -68 25 -17 8 -44 17 -60 20 -40 8 -60 13 -60 15 0 2 -8 3 -60 14 -16 3 -50
10 -75 16 -61 14 -294 56 -350 63 -25 4 -61 11 -80 17 -19 5 -55 13 -80 16
-44 5 -55 6 -130 19 -19 3 -48 8 -65 10 -72 10 -94 15 -163 34 -40 12 -87 23
-105 26 -17 2 -54 11 -82 19 -27 8 -66 17 -85 20 -71 10 -105 18 -115 25 -5 4
-23 7 -40 7 -41 -1 -44 -32 -8 -71 16 -17 44 -53 63 -80 36 -52 70 -93 106
-129 12 -12 38 -43 59 -71 20 -27 51 -66 69 -85 17 -19 47 -60 67 -90 20 -30
55 -74 78 -98 22 -24 41 -47 41 -52 0 -5 6 -15 13 -22 7 -7 34 -43 60 -80 39
-56 90 -128 125 -173 4 -5 28 -37 53 -70 25 -33 62 -82 82 -110 20 -27 40 -55
44 -60 43 -56 63 -85 63 -95 0 -6 7 -13 15 -16 8 -4 15 -12 15 -18 0 -7 8 -21
18 -32 35 -38 122 -162 122 -173 0 -6 4 -11 9 -11 5 0 14 -13 21 -29 6 -16 20
-37 31 -47 22 -20 25 -44 5 -44 -8 0 -52 -16 -98 -35 -46 -20 -90 -37 -98 -39
-8 -2 -28 -8 -43 -14 -16 -7 -31 -12 -34 -12 -6 0 -166 -75 -204 -95 -14 -8
-28 -12 -31 -9 -3 2 -11 -2 -18 -11 -7 -8 -19 -15 -27 -15 -8 0 -35 -9 -61
-21 -78 -35 -387 -190 -392 -197 -4 -6 -115 -63 -130 -67 -7 -2 -51 -21 -109
-46 -27 -11 -55 -21 -63 -23 -56 -8 -85 -69 -43 -91 101 -54 131 -69 137 -70
3 0 10 -3 14 -7 7 -8 162 -83 179 -88 6 -1 26 -10 45 -20 39 -20 212 -80 230
-80 16 0 144 -62 148 -72 2 -4 9 -8 15 -8 7 0 47 -18 90 -39 43 -22 80 -40 82
-41 7 -1 79 -33 167 -74 43 -19 78 -34 78 -31 0 2 37 -16 82 -41 46 -24 118
-61 160 -82 42 -20 77 -40 78 -43 0 -6 -96 -116 -118 -133 -7 -6 -31 -27 -52
-48 -21 -20 -56 -49 -77 -65 -21 -15 -43 -32 -49 -38 -6 -5 -22 -18 -35 -28
-13 -9 -39 -28 -58 -42 -19 -14 -41 -25 -47 -25 -7 0 -17 -6 -21 -13 -4 -6
-21 -19 -37 -27 -32 -17 -132 -106 -241 -218 -40 -39 -77 -72 -83 -72 -7 0
-12 -6 -12 -14 0 -8 -6 -16 -12 -18 -10 -4 -10 -10 -1 -30 7 -17 32 -35 69
-52 32 -15 61 -30 64 -34 3 -4 37 -22 75 -41 39 -19 82 -43 97 -53 16 -11 28
-16 28 -13 0 3 12 -2 28 -13 15 -10 47 -28 71 -41 24 -12 50 -28 58 -36 8 -8
21 -15 29 -15 8 0 14 -3 14 -8 0 -4 26 -22 57 -40 59 -33 90 -52 153 -91 19
-12 47 -27 63 -33 15 -7 27 -16 27 -20 0 -4 5 -8 11 -8 6 0 17 -7 25 -15 14
-13 13 -19 -7 -47 -13 -18 -26 -35 -30 -38 -8 -6 -59 -117 -59 -129 0 -5 -8
-26 -17 -47 -9 -22 -18 -43 -19 -49 -1 -5 -18 -45 -38 -87 -20 -42 -36 -82
-36 -89 0 -7 -7 -20 -16 -30 -8 -9 -17 -23 -18 -31 -3 -15 -38 -90 -46 -98 -3
-3 -21 -35 -39 -72 -30 -60 -32 -71 -22 -96 9 -22 19 -29 49 -31 56 -6 420 -2
482 4 98 10 400 13 400 4 0 -5 -5 -9 -11 -9 -5 0 -8 -4 -5 -9 3 -5 -1 -15 -10
-22 -9 -7 -23 -30 -31 -51 -8 -21 -20 -38 -26 -38 -6 0 -7 -3 -4 -6 3 -4 1
-16 -4 -27 -6 -11 -13 -34 -16 -51 -6 -36 -80 -261 -96 -291 -16 -29 -17 -42
-4 -59 19 -25 171 -22 282 4 28 7 59 14 70 15 11 2 64 15 118 29 55 14 103 23
108 20 5 -3 9 -2 9 3 0 4 28 8 61 8 56 -1 64 -3 85 -30 13 -17 24 -35 24 -42
0 -6 3 -13 8 -15 4 -1 27 -29 51 -61 36 -47 119 -133 175 -182 39 -34 96 -75
104 -75 5 0 15 -6 21 -14 7 -8 34 -26 60 -39 26 -14 64 -35 84 -46 20 -11 37
-18 37 -15 0 2 10 -1 23 -8 12 -7 47 -22 77 -33 l55 -20 1 -103 c0 -56 -2
-103 -5 -104 -6 -1 -32 -5 -86 -12 -70 -9 -249 -47 -390 -82 -55 -14 -107 -27
-115 -28 -8 -1 -35 -8 -60 -15 -25 -7 -49 -14 -55 -16 -25 -5 -80 -20 -210
-57 -77 -22 -153 -42 -170 -45 -16 -3 -38 -9 -48 -15 -10 -5 -28 -11 -40 -14
-23 -4 -152 -42 -177 -51 -8 -3 -23 -8 -34 -10 -30 -5 -81 -32 -105 -54 -11
-11 -21 -17 -21 -13 0 8 -27 -28 -92 -123 -23 -35 -46 -63 -51 -63 -4 0 -6 -4
-3 -9 3 -5 -1 -14 -9 -21 -8 -7 -15 -17 -15 -22 0 -5 -16 -33 -35 -63 -19 -30
-33 -55 -30 -55 2 0 -9 -23 -26 -52 -60 -101 -160 -319 -157 -340 2 -12 10
-22 18 -24 8 -1 40 -8 70 -14 30 -6 75 -13 100 -15 25 -2 74 -7 110 -10 79 -7
173 -14 260 -20 36 -2 103 -6 150 -10 105 -7 221 -13 370 -20 63 -2 162 -7
220 -10 141 -6 391 -16 520 -20 58 -2 206 -6 330 -10 433 -14 891 -5 1510 31
47 2 130 7 185 9 55 3 134 7 175 10 123 7 271 16 335 20 33 2 101 7 150 10
148 9 207 13 270 19 33 3 92 8 130 11 39 3 86 8 105 11 19 3 48 7 64 9 16 1
37 13 46 25 16 21 13 28 -71 193 -48 95 -98 192 -113 217 -14 25 -30 54 -35
65 -5 11 -21 37 -35 58 -14 21 -26 42 -26 47 0 6 -3 10 -8 10 -4 0 -16 16 -26
35 -11 19 -23 35 -28 35 -4 0 -8 6 -8 13 0 28 -98 107 -162 131 -35 13 -67 25
-73 26 -5 2 -14 4 -20 6 -20 6 -160 46 -170 49 -5 1 -17 4 -25 7 -15 6 -126
37 -145 41 -5 2 -16 6 -22 10 -7 5 -13 6 -13 4 0 -3 -21 2 -47 10 -27 8 -61
17 -78 20 -16 3 -37 8 -45 13 -8 4 -33 11 -55 15 -22 5 -44 10 -50 11 -25 7
-212 56 -230 59 -11 3 -29 7 -40 10 -67 15 -215 46 -245 51 -19 3 -46 8 -60
11 -14 2 -40 5 -57 5 -37 0 -34 -8 -38 119 -1 42 -5 81 -8 87 -4 6 24 23 70
42 43 18 83 36 89 41 6 5 14 6 17 2 4 -3 7 -2 7 4 0 6 15 17 33 24 35 14 160
98 165 111 2 4 8 8 13 8 10 0 62 46 138 120 37 37 89 95 130 147 17 22 29 29
47 25 13 -2 24 -7 24 -11 0 -3 10 -7 23 -7 21 -2 62 -11 62 -14 0 -1 11 -3 24
-6 13 -2 49 -12 80 -21 31 -9 58 -17 61 -18 18 -4 64 -20 117 -42 45 -19 71
-24 96 -19 l35 7 -3 87 c-5 116 -21 320 -29 357 -2 11 -11 45 -20 76 -30 102
-31 97 27 88 29 -5 70 -11 92 -14 41 -5 67 -9 120 -21 17 -4 37 -8 45 -9 18
-2 106 -16 135 -20 11 -2 20 -4 20 -5 0 -1 7 -3 15 -5 89 -18 180 -35 200 -39
14 -2 47 -14 73 -25 55 -24 65 -25 101 -11 25 9 25 10 12 47 -8 21 -20 52 -27
68 -6 17 -13 36 -15 44 -1 8 -7 17 -12 20 -5 3 -14 21 -20 39 -6 18 -20 45
-30 60 -11 15 -38 63 -60 107 -22 44 -67 122 -101 173 -34 51 -61 97 -61 101
0 5 -3 11 -8 13 -4 2 -23 35 -42 73 -19 39 -38 72 -41 75 -4 3 -16 28 -26 56
l-20 50 50 34 c28 19 55 39 61 45 11 10 59 45 161 116 28 20 64 42 80 51 17 8
48 25 69 37 32 18 124 61 241 111 11 5 52 18 90 31 82 26 71 19 79 46 6 18 -3
33 -41 73 -26 28 -70 68 -98 87 -73 53 -159 117 -165 123 -3 3 -25 21 -50 40
-25 19 -63 52 -85 72 -21 21 -42 38 -47 38 -4 0 -23 17 -43 38 -125 130 -175
179 -180 174 -3 -3 -5 0 -5 6 0 6 -9 14 -21 17 -11 4 -18 9 -15 12 2 3 -17 17
-43 32 -87 48 -89 50 -68 64 107 72 207 135 207 130 0 -3 8 1 18 10 9 8 19 15
22 14 3 0 46 20 95 44 50 25 113 53 140 63 28 10 82 29 120 43 39 13 79 29 90
34 11 4 43 17 70 28 28 10 71 31 97 45 25 14 48 22 52 19 3 -4 6 -1 6 6 0 7 5
9 10 6 6 -3 10 -2 10 2 0 5 8 13 18 18 10 6 36 21 58 35 21 14 41 25 44 26 17
2 60 29 60 37 0 6 3 8 6 4 7 -7 90 51 141 101 13 12 26 22 27 22 2 0 21 15 42
33 80 69 124 117 124 134 0 24 -14 44 -31 47 -8 1 -32 10 -54 20 -80 35 -90
39 -99 37 -4 -1 -13 3 -20 8 -6 5 -23 12 -36 14 -14 2 -32 7 -40 10 -8 4 -26
8 -40 11 -14 3 -63 16 -110 31 -47 14 -94 27 -105 29 -11 3 -58 19 -105 36
-47 17 -94 34 -105 36 -11 3 -27 7 -35 9 -8 2 -15 4 -15 5 0 1 -7 3 -15 5 -13
2 -88 23 -115 31 -5 2 -28 8 -50 13 -34 7 -71 19 -213 66 -7 3 -13 4 -15 4 -1
-1 -18 8 -37 20 -19 11 -44 25 -55 31 -100 50 -200 109 -200 118 0 7 2 11 5
10 3 -2 12 3 20 10 8 7 40 32 70 55 103 79 255 224 305 292 16 22 32 42 35 45
10 8 140 190 140 196 0 3 13 24 29 48 16 23 57 96 92 162 72 138 119 214 131
214 5 0 7 4 4 8 -3 5 14 29 37 55 23 25 53 60 67 78 14 17 35 43 48 57 12 14
22 29 22 34 0 5 5 6 10 3 6 -3 10 -2 10 3 0 10 133 145 202 205 23 21 69 55
100 75 55 36 74 64 63 95 -3 7 -11 14 -18 15 -7 1 -34 3 -62 6 -27 2 -52 5
-55 6 -9 3 -63 1 -135 -5 -67 -5 -100 -10 -155 -20 -39 -7 -93 -16 -115 -20
-11 -1 -49 -8 -85 -15 -36 -7 -74 -14 -85 -15 -47 -9 -181 -37 -195 -42 -8 -3
-28 -7 -45 -9 -30 -3 -59 -8 -105 -19 -14 -3 -39 -7 -57 -9 -18 -3 -40 -7 -50
-10 -10 -3 -29 -7 -43 -10 -14 -3 -34 -7 -45 -9 -69 -15 -181 -31 -295 -42
-55 -5 -81 -9 -175 -22 -50 -7 -165 -7 -220 1 -16 2 -40 4 -52 5 -21 1 -21 4
-17 74 3 39 7 99 9 132 6 104 22 267 30 305 6 25 9 51 20 140 8 67 13 102 20
130 3 14 12 63 20 110 8 47 18 99 21 115 3 17 7 39 9 50 1 11 5 31 9 45 4 14
9 45 11 70 4 47 11 90 21 150 3 19 7 46 9 60 2 14 4 25 5 25 4 0 9 73 15 205
3 80 8 161 10 180 3 19 7 127 10 240 4 238 -3 280 -47 280 -16 0 -28 -4 -28
-10z"/>
</g>
</svg>
